<svg width="820" height="420" viewBox="0 0 820 420" xmlns="http://www.w3.org/2000/svg" role="img" aria-label="LeetCode Difficulty Distribution">
  <rect width="820" height="420" rx="28" fill="#0d1117"/>

  <text x="410.0" y="52" text-anchor="middle" font-family="Arial, Helvetica, sans-serif" font-size="32" font-weight="800" fill="#f0f6fc">
    LeetCode Difficulty Distribution
  </text>

  <g font-family="Arial, Helvetica, sans-serif">
    <path d="M 210 235 L 210.00 105.00 A 130 130 0 0 1 339.56 245.74 Z" fill="#00b8a3"><title>Easy: 10</title></path><path d="M 210 235 L 339.56 245.74 A 130 130 0 1 1 167.79 112.04 Z" fill="#ffc01e"><title>Medium: 26</title></path><path d="M 210 235 L 167.79 112.04 A 130 130 0 0 1 210.00 105.00 Z" fill="#8b949e"><title>Unknown: 2</title></path>

    <circle cx="210" cy="235" r="62" fill="#0d1117"/>

    <text x="210" y="227" text-anchor="middle" font-size="36" font-weight="800" fill="#f0f6fc">
      38
    </text>
    <text x="210" y="269" text-anchor="middle" font-size="19" font-weight="600" fill="#8b949e">
      solved
    </text>

    <rect x="430" y="127" width="24" height="24" rx="4" fill="#00b8a3"/><text x="470" y="145" font-size="25" font-weight="700" fill="#f0f6fc">Easy: 10 (26.3%)</text><rect x="430" y="179" width="24" height="24" rx="4" fill="#ffc01e"/><text x="470" y="197" font-size="25" font-weight="700" fill="#f0f6fc">Medium: 26 (68.4%)</text><rect x="430" y="231" width="24" height="24" rx="4" fill="#ff375f"/><text x="470" y="249" font-size="25" font-weight="700" fill="#f0f6fc">Hard: 0 (0.0%)</text><rect x="430" y="283" width="24" height="24" rx="4" fill="#8b949e"/><text x="470" y="301" font-size="25" font-weight="700" fill="#f0f6fc">Unknown: 2 (5.3%)</text>
  </g>
</svg>
